<?xml version="1.0" encoding="utf-8"?>
<!-- Generator: Adobe Illustrator 21.1.0, SVG Export Plug-In . SVG Version: 6.00 Build 0)  -->
<svg version="1.1" id="Layer_1" xmlns="http://www.w3.org/2000/svg" xmlns:xlink="http://www.w3.org/1999/xlink" x="0px" y="0px"
	 viewBox="0 0 5148 6482.1" style="enable-background:new 0 0 5148 6482.1;" xml:space="preserve">
<style type="text/css">
	.st0{fill:#D1D3D4;}
	.st1{fill:#FFFFFF;}
</style>
<circle class="st0" cx="2574.7" cy="3241.1" r="467.7"/>
<g id="r6tID8.tif">
	<g>
		<path class="st1" d="M2797.5,3324.2c-1.1-6.4-5.3-10.1-10.9-13.2c0.1,6.8-1.5,9.2-5.4,9c-3.7-0.2-5.1-2.8-4.3-9.1
			c-2.4,3.6-4.4,6.7-6.7,10.1c3.6,0.9,5.6,3,4.7,6.5c-0.4,1.6-2.4,3.8-3.6,3.8c-2.5-0.1-4.9-1.5-7.3-2.4c0.1-0.4,0.1-0.9,0.2-1.3
			c-1.5,1.4-3,2.8-5,4.6c6,1.8,11.5,3.4,16.9,5c-0.1-0.4-0.2-0.9-0.3-1.3c2.5-0.8,5.4-2.7,7.3-2c1.9,0.7,2.8,4.1,4.6,7.1
			c11.5,6.2,24,13,36.7,19.9c0.5-0.5,1.1-1.8,2.2-2.4c1.9-1.1,4.8,0.7,4.2,2.9c-1.2,4.3-1.2,9.5-5.8,11.9c-2.8,1.5-6,2.5-9.1,2.7
			c-3,0.2-3.5-2.8-1.1-6.9c-2-1.8-4-3.7-6-5.6c-0.1,0.3-0.2,0.7-0.2,1c-2.1-0.1-4.8,0.4-6.2-0.7c-1.2-0.9-1-3.7-1.4-5.7
			c0.3-0.4,0.7-0.9,1-1.3c-3.1-0.9-6.2-1.7-9.2-2.9c-1.4-0.5-2.6-1.8-3.7-2.9c-1.4-1.5-2.3-3.7-4-4.7c-6.9-4.1-14-7.8-21.4-11.9
			c0.4,6-0.8,8.3-4.1,8.8c-3.9,0.6-5.8-1.1-6.8-5.9c-7.7,3.1-15.5,6.2-23.5,9.4c0.6,5.6-1,8.6-5.2,8.9c-4,0.3-6.1-2.3-6.5-8.1
			c-3.5,0-7.1,0-10.6,0c-0.5,7.4-2.7,9.1-10.5,7.8c0.2,2,0.5,3.8,0.7,5.7c0.2,1.9,0.4,3.8,0.6,5.7c6.6,0.6,8.8,2.3,8.6,6.4
			c-0.2,3.8-2.5,5.5-8.2,5.9c-0.3,3.8-0.6,7.6-0.8,10.1c3.2,1.9,6.2,3,7.9,5.1c0.8,1,0,4.9-1.3,5.7c-2.1,1.3-5,1.1-8.2,1.6
			c-2.1,7-4.6,15.3-7.1,23.6c4.8,2.6,6.1,4.8,4.5,7.9c-1.7,3.1-4.2,3.5-9.6,0.6c-0.6,3.1-0.9,5.9-1.7,8.5c-0.5,1.6-1.5,3.1-2.6,4.4
			c-1.5,1.6-3.8,2.6-5.1,4.4c-10,14.1-22.3,25.6-36.5,35.6c-4.4,3.1-8.5,5.4-13.5,6.9c-6.9,2.1-13.4,5.4-20.3,7.3
			c-23.1,6.5-46.3,6.7-69.6,0.9c-2.1-0.5-4.1-1.5-6.1,0.7c-0.5,0.5-3.1-0.7-4.5-1.6c-1.1-0.7-1.6-2.5-2.8-3
			c-6.3-3-12.8-5.3-18.9-8.6c-6.1-3.3-11.7-7.4-16.4-10.4c-3.3,0.1-5.9,0.9-7.6,0c-0.9-0.4-0.3-3.8,0.6-6c-1.9-2-3.8-4-5.9-6.1
			c-2.2,1.9-4.9,3.4-6.7,0.5c-0.9-1.5,0-4.2,0.2-6.3c0.4,0,0.9-0.1,1.3-0.1c-1.9-2.5-3.7-5.1-4.9-6.7c-2.4,1.2-4.4,2.6-6.5,2.9
			c-0.7,0.1-2.9-3.4-2.5-4.2c1.1-1.8,3.2-3,4.9-4.4c-3-8-6.3-16.9-9.5-25.5c-1.9-0.2-4.5,0.3-6-0.8c-1.5-1-1.7-3.7-2.8-6.1
			c-4.2-0.2-9.2-0.5-13.1-0.7c-1,2.6-1.4,5-2.8,6.8c-0.6,0.7-4.2,0.2-4.6-0.6c-0.9-1.9-0.7-4.4-0.9-7c-8.3-2.1-17.6-4.5-25.8-6.6
			c-2.6,1-5,2.8-6.4,2.3c-1.4-0.6-2-3.5-2.4-5.7c-13.7-6.9-26.8-15.1-37.8-26.4c-10.9-11.1-19.6-23.8-25.2-37.5
			c-2.1-0.9-3.6-1.5-5.1-2.1c0.6-1.5,1.2-3,2.2-5.4c-4.3-11.5-6-24.7-6.3-38.1c-0.1-3.3-1.4-6.8-2.9-9.9c-1-2-4-3.1-4.8-5.1
			c-0.8-2,2.2-4.1,0.7-7.1c-3.1-6.5-5.4-13.4-7.9-20.2c-6.7-18.1-13.3-36.3-20-54.5c-0.4-1-0.6-2.1-1-3.2c-1.9-5.7-0.9-10.5,3-15.4
			c11.9-14.9,24.4-29.2,39.8-40.7c1.2-0.9,2-2.9,2.4-4.5c2.7-11.9,5.8-23.7,7.5-35.7c0.5-3.8,2.3-6,3.7-9
			c13.1-28.6,33.8-49.6,61.9-63.5c1.1-0.5,1.9-1.5,2.8-2.3c0.7-0.6,1.3-1.5,2.2-1.7c4.5-1.1,9-1.9,13.4-3c3.1-0.7,6.2-1.7,9.3-2.4
			c3-0.7,6-1.2,7.6-1.5c2-2.3,3-4.6,4.6-5c1.1-0.3,2.9,1.8,4.3,2.9c-0.2,0.3-0.4,0.7-0.6,1c5.1,0,10.2,0,15.3,0
			c-0.2-0.3-0.4-0.7-0.5-1c1.8-1.2,3.6-3.3,5.5-3.4c1.2-0.1,2.6,2.8,4.1,4.6c7.8,2,16.3,5.2,25,6.1c4.9,0.5,7.8,1.4,11.5,4.7
			c5.1,4.6,12.2,7.1,18,11.1c5.7,3.9,10.8,8.6,16.1,12.9c2.7-6.2,5.4-12.6,8.2-19c-0.5,0.2-1.1,0.3-1.6,0.5
			c-1.9-1.8-4.3-3.3-5.6-5.4c-0.5-0.9,1.1-4.3,2.3-4.6c2.2-0.6,4.8,0.2,7.3,0.4c0.4,0.4,0.8,0.9,1.2,1.3c0.3-2.9,0.8-5.8,0.9-8.7
			c0.1-2.7,1.1-4.4,3.7-5.3c1.2-0.4,2.6-1,3.2-2c10.5-15.7,24.2-27.8,41-36.4c0-1.2-0.2-2.3,0-3.3c0.6-2.3,3-3.7,4.3-2
			c2.6,3.2,4.9,1.2,7.3,0.4c26-8.7,51.8-8.2,77.6,0.8c1.7,0.6,3.5,2.1,5.2-0.2c0.1-0.2,2.3,0.7,3.2,1.5c1,0.8,1.3,2.6,2.3,3.2
			c21.7,10.7,37.7,27.1,49.3,48.2c1.1,1.9,1.9,3.5,4.8,3.6c2.6,0.1,3.3,2.4,2.2,5c-0.5,1.3-0.7,3.2,0,4.3c0.6,0.9,2.6,1.3,3.9,1.1
			c15.8-2.1,31.3-0.3,46.5,4.2c1.5,0.4,3.4-0.5,5.5-0.9c-0.3,4.3,3.9,4.4,6.9,5.7c24.2,10.8,43.7,27.2,59.2,48.6
			c1.8,2.4,3.1,3.8,6.6,2.9c2.7-0.6,6.2,0.3,8.8,1.5c11.9,5.8,23.2,12.7,32.3,22.5c2.5,2.7,4.1,6.2,6.2,9.3c0.8,1.1,1.5,2.3,2.4,3.3
			c1.3,1.5,2.7,2.8,4,4.2c7.1,8.2,7.7,15,2.2,24.4c-11.2,19.2-22.6,38.3-33.6,57.6c-2.8,4.9-4.7,10.3-6.7,15.6
			c-4.2,11.2-9.7,21.8-16.7,31.6c-0.9,1.3-0.7,3.4-1.4,4.9c-0.4,1-1.5,1.8-2.4,2.5c-1.1,0.9-2.9,1.3-3.5,2.3
			c-2.6,4.6-4.9,9.3-7.1,14.1c-2.4,5.3-7.3,6.5-12.1,7.6c-1.1,0.3-2.5-1.1-4.4-2.1c-0.3,0.2-1.1,0.8-2,1.4c0.3,0.5,0.4,1,0.7,1.2
			c14.1,12,12.5,34.5-9.8,42.3c-1.8,0.6-3.4,2.1-5.2,2.9c-1.3,0.6-3,1.1-4.2,0.7c-6.1-2-12-4.3-18-6.5l0.1,0.1
			c-3.7-3.6-7.3-7.1-11-10.7L2797.5,3324.2z M2545.2,3183.6c0.5-0.2,0.9-0.3,1-0.5c0.7-1.1,1.3-2.2,1.9-3.2
			c5.9-10,12.8-19.1,21.3-27.2c7.5-7.1,16.4-11.9,26.5-13c22.5-2.5,42.5,4.1,59.6,19.1c1.4,1.2,2.6,2.7,3.9,4.1
			c0.3-0.1,0.7-0.3,1-0.4c-1.7-7.5-3.1-15.1-5.3-22.4c-1.3-4.3-0.6-6.2,3.4-8.3c28.8-14.5,59-24.9,89.9-33.8
			c7.8-2.2,15.1-1,20.1,5.3c8.1,10.3,16.4,20.7,22.9,32c6.2,10.8,3.7,14.8-8.1,19.3c-15.2,5.7-30.4,11.4-45.6,17.1
			c-1.3,0.5-3.2,1.6-3.3,2.5c-0.3,4.6-0.2,9.3-0.2,14.2c2.8-0.8,5.2-1.4,7.6-2.1c9.4-2.7,17.3-0.6,23.1,7.6
			c2.6,3.7,5.1,7.6,7.6,11.4c4,6,8.4,11.7,12.1,17.9c3.1,5.3,1.5,9.5-4.1,12.3c-2.4,1.2-5,2.2-7.8,3.5c11.3,14.7,14.3,31.3,12,49.2
			c2.6-6.5,6.5-11.7,12.7-15.1c6.3-3.3,13-2.9,20.3-2.8c-1.4-2.7-2.8-5.3-4.9-7.2c-7.6-6.6-9.5-12.3-6.1-21
			c6.5-16.5,12.7-33.2,19.9-49.4c11.8-26.6,24.3-53,36.4-79.5c0.7-1.5,1-4,0.2-5.3c-20.3-34.8-48.7-59.6-88-70.6
			c-7.4-2.1-15.3-2.5-23.9-3.8c7.8,17.7,15.3,33.9,14,51.8c-2.9-7.4-4.9-15.7-9.2-22.7c-9.4-15.4-19-30.8-30-45
			c-26.3-33.7-71.5-47.9-112.3-35.5c-36.2,11-58,36.7-69.7,71.6c-2.8,8.2-4,16.8-6.1,26.1c21.8-2.5,38.5,4.4,52,21.2
			c-1.5-0.2-2.1-0.3-2.6-0.4c-13.9-2.8-27.9-5.2-42.2-2.8c-16.6,2.8-31.5,17.4-33.2,33.1c-0.1,1.3,0.5,3.4,1.5,4.1
			c11.3,8.6,17.5,21.4,25.7,32.4c2.5,3.3,3.3,7.9,4.8,11.9C2544.4,3180.7,2544.8,3182.1,2545.2,3183.6z M2451.7,3415.7
			c0.1,0.7,0,1.2,0.1,1.6c0.2,0.9,0.5,1.9,0.8,2.8c5.2,15.9,15.2,28.6,28.2,38.4c41.8,31.8,87.6,37.8,135.9,17.4
			c47.2-20,75.6-72.9,75.5-123.6c0-5.5-0.8-9.6-7.2-10.7c-2.1-0.4-4.1-1.7-6-2.8c-7-4-13.4-8.7-18.9-16c1.6,0.5,2.3,0.6,2.8,0.9
			c10.1,5,20.9,7.5,32.1,8.3c18.3,1.2,35.5-2.3,50.5-13.4c17.2-12.8,25.4-30.7,28-51.6c1.1-9.1,0.6-18.2-2.5-27.4
			c-11.6,5.2-22.8,10.4-34.1,15.4c-2.7,1.2-3.5,2.8-3.5,5.7c0.5,16.7,0.5,33.4,1.3,50c0.4,9-2.4,12.3-11.6,13.2
			c-6.8,0.6-13.8-0.3-20.8-0.6c-9-0.4-14.9-4.7-16.7-13.9c-0.2-1.2-1.1-2.8-2.1-3.1c-5.4-2-7.6-6.4-8.7-11.4c-1.2-5.5-2-11-3.1-17.3
			c-0.6,1.3-0.9,1.9-1.2,2.6c-5.2,10.1-9.7,20.6-15.7,30.2c-7.7,12.3-18.2,21.8-33,25c-11.8,2.5-23.6,0.8-35.1-1.7
			c-16.6-3.6-30.4-11.2-38.1-27.4c-0.4-0.8-1.3-1.4-1.8-2.2c-3.5-5.1-7-10.2-10.3-15.4c-1.1-1.8-1.6-3.9-2.7-6.6
			c-1.1,2.4-1.6,4.1-2.5,5.6c-5.8,9.9-11,20.3-17.6,29.6c-9,12.8-21.1,21.7-37.1,24c-12.8,1.9-25.5,0.1-38-2.8
			c-18-4.1-33.2-12.6-41.9-29.9c-0.2-0.5-0.6-1-1-1.3c-9.3-8.6-13.3-19.9-16.4-31.7c-0.8-3-1.4-6.1-2.2-9.4
			c-5.5,5.2-10.8,9.9-15.8,14.9c-0.8,0.8-0.9,2.8-0.6,4.1c2.6,10.5,5.3,21,8.2,31.4c2.5,9.2,0.5,13.1-8.8,15
			c-7.3,1.4-14.7,2.2-22.2,3.3c0.5,1,1.1,2.4,1.8,3.7c12.1,21.5,29.4,37.5,51.7,48c32.6,15.4,66.7,18,101.7,10.4
			c7.9-1.7,15.5-4.6,23.7-7.1c-10.8-13-15.4-26.3-9.9-41c3.9,6.5,7.1,13.9,12.1,19.8c13.8,16.1,32.6,20.1,52.7,19.6
			c7.1-0.2,13.7-2.4,19.1-7.3c2.3-2.1,4-4.8,5.9-7.2c0.6,3.2,0.8,6.4,0,9.3c-3.8,13.5-14.2,19.4-26.8,21.8
			c-18.3,3.5-35-0.4-50.1-12.3C2499.5,3407.2,2476.4,3413.8,2451.7,3415.7z M2382.8,3240.6c0.2,17.4,2,30.6,6.6,43.4
			c3.7,10.4,10.1,18.4,19.6,24c14.3,8.6,30.3,10.5,46.5,10.9c14.3,0.3,26.6-4.8,35.7-15.8c6.7-8.1,13.1-16.7,17.8-26
			c15.8-31.1,21.3-64.3,18.6-99c-1.6-21.1-12-36.4-31.9-44.4c-6.9-2.8-14.2-4.9-21.4-6.7c-20.3-5-37.5,0.9-51.7,16
			C2396,3171.6,2384.3,3206,2382.8,3240.6z M2402.4,3156.4c1.1-1.5,2-2.8,2.9-4c7.2-9.6,14.7-18.9,25-25.4
			c16.5-10.4,34.2-11.3,52.5-5.6c8,2.5,15.8,5.5,23.7,8.3c-3.9-10.6-2.2-20.6,3.5-30.2c5.7-9.6,14.3-15.7,25.2-19
			c0-8.8,0.1-17.6-0.1-26.3c0-1-0.8-2.4-1.6-2.9c-28.9-19.1-60.5-27.8-94.7-21.2c-51.4,9.9-83.6,41.5-97.6,91.8
			c-0.5,1.8-0.8,3.7-1.2,5.9c1.6-0.4,2.7-0.6,3.7-0.8c8.5-2.1,16.7-1.4,24.8,2.3C2381.9,3135.5,2393.9,3143.5,2402.4,3156.4z
			 M2536.2,3251.3c0.7,5.5,1.4,13.1,2.7,20.6c3.3,18.4,12.9,32,31.5,37.2c8.9,2.5,18.2,3.7,27.5,4.3c12.3,0.9,23.2-3.3,31.2-12.8
			c5.9-7.1,11.7-14.6,15.9-22.7c14.1-27.5,19.1-56.9,16.1-87.7c-1.5-15.2-8-27.7-22.4-34.2c-8.6-3.9-17.9-6.9-27.2-8.9
			c-13.6-3-26.2,0.8-36.2,10.3C2549,3182.2,2537.8,3213.6,2536.2,3251.3z M2767.2,3212.6c-3.1-6.7-6.2-13.2-11.9-17.6
			c-2.1-1.7-5.7-2.4-8.4-2c-5.2,0.8-10.2,2.6-15.2,4.2c-5.6,1.8-11.2,3.7-17.3,5.8c0.2-3.2,0.4-5.6,0.4-8.1
			c0.3-12.6,0.6-25.3,0.7-37.9c0-3.4,1.2-5.2,4.5-6.4c9.2-3.2,18.2-6.8,27.3-10.2c7.5-2.8,15.1-5.6,22.6-8.5
			c5.7-2.2,6.4-3.2,3.4-8.5c-3-5.4-6.9-10.3-10.8-15.1c-2.9-3.5-6.9-4.4-11.4-3c-3.3,1-6.7,1.8-10,2.8
			c-25.7,7.6-50.9,16.7-75.2,28.3c-3,1.4-3.3,2.9-2.8,6c3,16.1,6.3,32.2,8.2,48.4c3.2,28.2,5.2,56.4,7.9,84.7
			c0.6,6.5,1.8,12.9,3.3,19.2c0.5,1.9,2.8,4.5,4.5,4.7c8.1,1,16.2,1.5,24.4,1.8c3.6,0.1,4.7-2.1,4.5-5.8c-0.5-18.3-0.7-36.7-1.2-55
			c-0.1-3,0.9-4.5,3.6-5.7c8.3-3.7,16.4-7.6,24.6-11.3C2750.8,3219.7,2758.8,3216.2,2767.2,3212.6z M2333.7,3311.3
			c3.1-0.6,8.2-1.6,13.3-2.4c3.8-0.6,4.7-2.2,3.6-6c-3.3-11.8-6.2-23.6-9.4-35.4c-0.7-2.6-0.1-4.2,1.9-6.1
			c10.2-10.2,20.3-20.6,30.1-31.2c2-2.2,3.5-5.4,3.9-8.4c2.9-18.9,8.7-36.8,17.9-53.4c2.4-4.4,1.8-7.4-1-10.9
			c-8.8-11.4-20.6-18.5-33.9-23.3c-3.4-1.2-7.4-1.1-11.1-0.7c-8.2,0.9-15.4,4.5-22.2,9.1c-16,10.8-28.6,25-40.6,39.9
			c-3.4,4.2-4.1,8-2.3,12.9c7.6,20.3,15.2,40.6,22.4,61c5.7,16.2,10.9,32.6,16.1,49C2323.9,3309.7,2326.1,3311.3,2333.7,3311.3z
			 M2920.1,3131.7c-1.3-2.6-2.2-5.2-3.9-7.3c-7.8-9.7-18.3-16-29.1-21.8c-7.1-3.8-8.8-3.4-12.3,3.7c-22.4,45.2-43.6,90.9-61.2,138.2
			c-2.2,5.8-1.8,8.8,3.4,12.3c6.7,4.6,14,8.4,21.2,12.2c5.1,2.7,5.5,2.2,8.2-2.9c10.8-20.5,21.3-41.2,32.5-61.5
			c11.9-21.4,24.5-42.3,36.7-63.5C2917.3,3138.3,2918.5,3135.1,2920.1,3131.7z M2814.8,3317.5c4.9-2.1,9.8-3.4,13.7-6.2
			c9.8-6.8,10-19.2,0.4-26.2c-4.7-3.4-10.4-5.8-16.1-7.2c-8.7-2.2-16.9,2.7-20.3,10.7c-3.7,8.9-1.6,17.5,6.6,22.6
			C2803.8,3314,2809.3,3315.4,2814.8,3317.5z M2783.2,3294.6c-1.8,4.7-3.6,9.7-5.7,15.2c3-0.5,5.8-0.9,8.1-1.3
			C2784.8,3303.4,2784,3298.9,2783.2,3294.6z"/>
		<path class="st1" d="M2809.4,3385.4c-2.1,0.8-3.8,1.9-5.6,2c-0.7,0.1-2.4-2.1-2.2-2.8c0.5-1.7,1.9-3.1,3.3-5.3
			c-1.7-2.1-4.2-5-7.1-8.5c-0.8,3.6-1.8,6.8-5.6,5.6c-1.3-0.4-3.2-3.3-2.8-4.1c0.9-1.8,3-3,4.8-4.7c-1.7-1.8-4.2-4.4-6-6.2
			c-3,1.6-5.2,3.2-7.7,4c-0.7,0.2-3.2-2.2-3-3.1c0.3-2.3,1.7-4.4,2.8-7.2c-1-0.7-2.9-2.2-4.9-3.6c0,0.5,0,0.9,0,1.4
			c-2.6,0.4-5.5,1.7-7.7,0.9c-4.4-1.6-2.6-5.5-1.5-8.7c3.8-1,7.4-0.9,9.2,3.9c0.3,0.7,1.5,1.1,2.4,1.6
			c27.8,15.8,48.5,38.2,61.7,67.3c0.9,2,1.6,6,0.8,6.5c-2.6,1.7-5.9,2.4-9.1,2.9c-0.8,0.1-2.2-2-2.8-3.4c-3.1-7.4-5.9-14.9-9.1-22.3
			c-0.5-1.2-2.3-2-3.4-3c-0.9-0.8-2.5-2.1-2.3-2.5C2815.9,3390.6,2810.4,3388.6,2809.4,3385.4z"/>
		<path class="st1" d="M2777.1,3386.2c4.8,9.5,9.7,19,14.5,28.5c0.2,0.4,0.4,0.8,0.7,1c1.2,1,3.2,1.9,3.3,3c0.1,1.9-0.4,5-1.6,5.5
			c-3.4,1.5-7.2,2.1-10.9,2.7c-0.4,0.1-1.3-2.2-1.7-3.4c-2.3-8.4-4.5-16.7-6.8-25.3c-4.8,2.5-7.5,2.1-8.7-0.5
			c-1.3-2.8,0-4.7,4.9-6.5c-4-9-9.1-17.4-15.1-25c-3.6-4.6-6.7-9.7-12.5-12.4c-2.8-1.3-2.7-4.7-1-7.3c1.7-2.6,5.3-3.1,7.7-1.1
			c2.5,2,3,4.6,1.3,7.4c-0.6,1.1-1.5,2-2.5,3.2c1,0.8,2.4,2.1,4.1,3.5c2.6-2.8,5.7-4.9,8.9-1.7c3,3,1.5,6.1-1.5,8.7
			c1.5,1.6,2.9,3.1,4.1,4.4c2.1-0.9,3.9-2.1,5.8-2.5c0.9-0.2,2.4,0.7,3.2,1.6c2.2,2.4,1.3,5.2-2.9,8.2c2.2,2.8,4.5,5.5,6.7,8.3
			L2777.1,3386.2z"/>
		<path class="st1" d="M2469.5,3582.9c-1.4-0.2-1.8-0.2-2.2-0.3c-8.4-0.9-9.6-2.6-6.9-10.4c6.8-19.9,16-38.7,27.8-56.1
			c0.9-1.3,1-3.2,1.6-4.7c0.4-0.9,1-1.9,1.8-2.3c0.6-0.3,2.1,0.4,2.3,0.9c0.2,0.9,0,2.1-0.5,2.9c-1,1.7-2.6,3.2-3.4,5
			c-8.4,19-14.2,38.8-17.3,59.3C2472.3,3579.6,2473.2,3583.5,2469.5,3582.9z"/>
		<path class="st1" d="M2862.3,3044.6c3.1-15.3,7.7-30.2,14.7-44c7.1-14,15.2-27.4,23.1-40.9c2.3-3.9,4.4-3.9,8.1-1
			c3.6,2.8,3.8,4.3,0.8,7.7c-19.7,22.8-35.2,48.2-45.9,76.4C2862.9,3043.4,2862.6,3044,2862.3,3044.6z"/>
		<path class="st1" d="M2879.5,3047.6c11.3-16.2,25.3-29.2,41.8-39.5c5.5-3.4,11.4-6.3,17.2-9.4c3.7-2,4.7,1,5.6,3.4
			c0.8,2.3,3,5.5-1.3,6.8c-24.1,7.5-44.9,20.3-62.3,38.6C2880.4,3047.6,2880,3047.5,2879.5,3047.6z"/>
		<path class="st1" d="M2265.9,3301.2c-6,7-12.4,13.7-18,21.1c-12.2,16-23.9,32.3-36,48.4c-1,1.3-3,2.8-4.3,2.7
			c-3.4-0.3-4.2-3.4-1.7-6.4c8.5-10.4,16.7-21.1,25.7-31.1c10.8-12.1,22.3-23.6,33.5-35.3
			C2265.3,3300.7,2265.6,3300.9,2265.9,3301.2z"/>
		<path class="st1" d="M2375.5,3004.3c-9.7-14.7-20.5-28.4-32.9-40.8c-4.8-4.8-9.8-9.4-14.9-13.9c-2.5-2.2-1.8-4,0-6
			c1.8-1.9,3.5-2.9,5.9-0.4C2350.6,2961.5,2364.7,2981.8,2375.5,3004.3z"/>
		<path class="st1" d="M2620.2,2952.3c-0.6-3.1-1-5.6-1.4-7.6c0.9-3.2,1.9-6,2.5-9c2.5-12.4,7.1-23.9,13.9-34.5
			c1.9-3,3.9-2.3,5.7-0.4c1.7,1.8,6,3,2.4,6.7C2631.4,2920,2624,2934.9,2620.2,2952.3z"/>
		<path class="st1" d="M2884.5,3053.8c9-13.7,21.7-22.7,38.3-28c0.6,3.3,1.4,6.3,1.5,9.3c0,0.7-1.9,2.1-3.1,2.3
			C2907.3,3039.1,2895.3,3045,2884.5,3053.8z"/>
		<path class="st1" d="M2292.1,3321.4c-3.6,17.8-5.6,35.6-5.8,53.5c0,2.7-1.5,3.2-3.7,3.2c-2.7,0-3.6-1.3-3.3-4
			c1.8-15.6,5.4-30.8,10.3-45.7C2290.3,3326.1,2291.2,3323.8,2292.1,3321.4z"/>
		<path class="st1" d="M2381.2,3001c-5.6-13.3-11.2-26.6-16.7-39.9c-1.4-3.3,1.7-3.3,3.3-4c2.1-0.8,4.3-1.2,5,2.2
			c2.4,11.5,5,23,7.5,34.6c0.5,2.3,1,4.6,1.5,6.8C2381.6,3000.8,2381.4,3000.9,2381.2,3001z"/>
		<path class="st1" d="M2273,2992.8c15.1,1.2,27.5,7.1,38.3,18c-5.7-2.6-10.6-5.5-15.9-7c-5.7-1.6-11.7-2.2-17.6-2.6
			c-5.4-0.4-5.6-0.2-5.3-5.5C2272.6,2994.9,2272.8,2994.1,2273,2992.8z"/>
		<path class="st1" d="M2206.2,3283c-3.5-4.7-3.1-6,3-7.4c12.4-2.9,24.9-4.7,36.1-4.2C2233.3,3274.9,2220,3278.9,2206.2,3283z"/>
		<path class="st1" d="M2712,3355.4c3.5,0,6.2,2.6,6.1,6c-0.1,3.2-2.7,5.8-5.9,5.9c-3.4,0.1-6-2.5-5.9-6.1
			C2706.3,3357.6,2708.5,3355.4,2712,3355.4z"/>
		<path class="st1" d="M2723.5,3367.2c3.1-0.1,5.6,2.2,5.7,5.3c0.1,3.2-2,5.6-5.2,5.8c-3.4,0.2-5.9-2.2-5.9-5.5
			C2718.1,3369.7,2720.4,3367.3,2723.5,3367.2z"/>
		<path class="st1" d="M2735.3,3366.8c-3.1,0-5.5-2.4-5.5-5.5c0-3.3,2.5-5.8,5.7-5.7c3.1,0.1,5.3,2.5,5.3,5.7
			C2740.7,3364.4,2738.4,3366.8,2735.3,3366.8z"/>
		<path class="st1" d="M2717.6,3384.3c0.1,3.1-2.2,5.5-5.3,5.6c-3.3,0.1-5.9-2.3-5.8-5.6c0-3,2.5-5.4,5.6-5.5
			C2715.2,3378.8,2717.5,3381.1,2717.6,3384.3z"/>
		<path class="st1" d="M2752,3372.7c0,2.9-2.4,5.3-5.2,5.3c-2.8,0-5.3-2.6-5.1-5.4c0.2-3,2-4.9,5-4.9
			C2749.9,3367.7,2751.7,3369.4,2752,3372.7z"/>
		<path class="st1" d="M2723.5,3401.1c-2.8-0.3-4.8-1.8-5-4.9c-0.3-2.8,2.3-5.6,5.1-5.5c3,0.1,4.9,1.9,5.2,4.9
			C2729.1,3398.5,2726.6,3401.1,2723.5,3401.1z"/>
		<path class="st1" d="M2532.6,3036.4c0,2.8-2.6,5.4-5.4,5.1c-3-0.3-4.8-2-5-5c-0.2-2.8,2.4-5.4,5.2-5.4
			C2530.1,3031.1,2532.6,3033.7,2532.6,3036.4z"/>
		<path class="st1" d="M2735.3,3379.1c2.7,0,5.3,2.7,5.3,5.4c-0.1,2.7-2.9,5.5-5.5,5.1c-2.9-0.4-4.8-2.1-5-5.2
			C2729.8,3381.8,2732.5,3379.1,2735.3,3379.1z"/>
		<path class="st1" d="M2711.3,3412.5c-2.6-0.2-4.2-2-4.3-5c-0.1-2.8,2.5-5.4,5.3-5.1c3,0.3,4.8,2.1,4.9,5.1
			C2717.4,3410.4,2714.8,3412.6,2711.3,3412.5z"/>
		<path class="st1" d="M2699.8,3424.1c-2.5-0.4-4.3-2-4.2-5.1c0.1-3.2,2-4.8,5-4.9c2.8-0.2,5.2,2.6,5.1,5.4
			C2705.4,3422.1,2703.1,3424.2,2699.8,3424.1z"/>
		<path class="st1" d="M2797.5,3324.1c0.1,0.8,0.6,1.9,0.3,2.4c-1,1.6-2.1,3.8-3.6,4.3c-1.3,0.4-4.1-0.7-4.7-1.9
			c-0.8-1.5-0.6-4.4,0.4-5.5c1-1.1,3.6-1,5.5-1c0.7,0,1.4,1.2,2.2,1.8C2797.5,3324.2,2797.5,3324.1,2797.5,3324.1z"/>
		<path class="st1" d="M2515.5,3020.1c3.2,0.2,4.9,1.7,4.9,4.7c0,3-1.7,4.7-4.6,4.7c-2.9,0-4.6-1.6-4.6-4.6
			C2511.1,3021.8,2512.9,3020.4,2515.5,3020.1z"/>
		<path class="st1" d="M2746.9,3400.7c-3.1-0.3-4.7-1.9-4.6-4.9c0-2.8,1.6-4.4,4.4-4.4c3,0,4.8,1.5,4.8,4.5
			C2751.5,3398.9,2749.7,3400.4,2746.9,3400.7z"/>
		<path class="st1" d="M2759.8,3389.1c-4.5-0.2-6-1.9-6-4.9c0-2.8,1.6-4.4,4.4-4.5c3.1-0.1,5.1,1.8,4.7,4.5
			C2762.7,3386.2,2760.6,3387.9,2759.8,3389.1z"/>
		<path class="st1" d="M2735.1,3402.9c3.1,0.1,4.8,1.6,4.8,4.6c0,3-1.8,4.7-4.7,4.6c-2.7,0-4.4-1.7-4.5-4.4
			C2730.5,3404.7,2732.2,3403.2,2735.1,3402.9z"/>
		<path class="st1" d="M2729,3419.9c-1.7,1.3-3.4,3.4-5.3,3.7c-2.7,0.4-4.7-1.5-4.7-4.5c0-2.7,1.5-4.4,4.3-4.5
			C2726.4,3414.4,2727.9,3416,2729,3419.9z"/>
		<path class="st1" d="M2716.6,3432.4c-1.1,0.7-2.8,2.5-4.6,2.7c-2.8,0.3-4.7-1.7-4.5-4.6c0.1-2.7,1.9-4.3,4.6-4.2
			C2715.1,3426.3,2716.6,3428,2716.6,3432.4z"/>
		<path class="st1" d="M2522.2,3012c1.7-1.1,3.6-3.4,5.2-3.2c1.7,0.2,4.1,2.6,4.4,4.3c0.5,2.7-1.7,5-4.6,4.4c-1.8-0.3-3.4-2.3-5-3.6
			C2522.2,3013.3,2522.2,3012.7,2522.2,3012z"/>
		<path class="st1" d="M2705.6,3443.3c-1.7,1.1-3.3,3-5.1,3.3c-2.7,0.5-4.4-1.6-4.4-4.3c0-2.7,1.7-4.7,4.4-4.3
			c1.8,0.3,3.4,2.1,5.2,3.3C2705.6,3441.9,2705.6,3442.6,2705.6,3443.3z"/>
		<path class="st1" d="M2509.2,3014.3c-1.8,1.1-3.7,3.1-5.4,3c-1.5-0.1-3.8-2.8-3.7-4.3c0.1-1.5,2.6-3.9,4.1-4
			c1.7,0,3.4,2.2,5.1,3.4C2509.3,3013.1,2509.3,3013.7,2509.2,3014.3z"/>
		<path class="st1" d="M2684,3452.7c1.7-1,3.6-3,5.2-2.8c1.5,0.1,3.8,2.6,3.7,4c-0.1,1.5-2.4,3.9-3.9,4c-1.6,0.1-3.4-2-5.1-3.1
			C2684,3454.1,2684,3453.4,2684,3452.7z"/>
		<path class="st1" d="M2543.8,3002.4c-1.5,1.2-3,3.1-4.7,3.4c-2.6,0.5-4.8-1.6-4.3-4.2c0.3-1.6,2.5-3.7,4.1-3.9
			c1.4-0.2,3.2,1.7,4.8,2.7C2543.8,3001.1,2543.8,3001.7,2543.8,3002.4z"/>
		<path class="st1" d="M2808.3,3334.6c0.2,0.8,0.7,1.7,0.5,2.3c-0.6,1.7-1.1,3.9-2.3,4.7c-1.1,0.7-3.8,0.1-4.7-0.9
			c-0.9-1-1.2-3.6-0.6-4.8c0.7-1.2,2.9-1.6,4.5-2c0.8-0.2,1.8,0.5,2.7,0.8C2808.4,3334.8,2808.3,3334.6,2808.3,3334.6z"/>
		<path class="st1" d="M2763.2,3406.6c-0.8,3.7-2.3,5-4.9,5c-2.7,0-4.5-1.7-3.9-4.1c0.4-1.6,2.5-3.7,4.1-3.9
			C2759.9,3403.4,2761.6,3405.5,2763.2,3406.6z"/>
		<path class="st1" d="M2751.6,3420c-1.6,1.1-3.2,3.2-4.6,3c-1.6-0.2-2.9-2.4-4.4-3.8c1.4-1.4,2.6-3.7,4.2-4
			c1.4-0.3,3.2,1.8,4.8,2.8C2751.6,3418.6,2751.6,3419.3,2751.6,3420z"/>
		<path class="st1" d="M2740,3429.9c-0.9,3.7-2.5,5.4-5,4.7c-1.5-0.4-3.4-2.4-3.7-4c-0.4-2.4,1.4-4.5,4-4
			C2737,3427,2738.4,3428.8,2740,3429.9z"/>
		<path class="st1" d="M2678.5,3460.8c1,1.6,2.9,3.5,2.7,4.8c-0.3,1.6-2.6,3.5-4.2,3.7c-1.1,0.1-3.5-2.4-3.5-3.9
			c-0.1-1.5,1.9-3.1,3-4.7C2677.1,3460.8,2677.8,3460.8,2678.5,3460.8z"/>
		<path class="st1" d="M2432.6,3434.6c-0.8-1.6-2.3-3.2-2.4-4.9c-0.1-2.7,2-3.9,4.5-3.6c2.7,0.3,4,2.3,3.2,4.7
			c-0.5,1.6-2.3,2.7-3.6,4C2433.8,3434.8,2433.2,3434.7,2432.6,3434.6z"/>
		<path class="st1" d="M2777.3,3386.4c0.3-1.5,0.1-3.5,1-4.2c1.3-1,3.6-1.7,5-1.2c1.1,0.4,2.3,2.9,2.1,4.2c-0.2,1.3-2.2,2.9-3.6,3
			c-1.5,0.2-3.1-1.2-4.7-1.9C2777.1,3386.2,2777.3,3386.4,2777.3,3386.4z"/>
		<path class="st1" d="M2479.8,3017.6c-0.9-1.6-2.5-3.1-2.6-4.7c-0.2-2.6,1.9-4.3,4.3-3.5c1.5,0.5,3.2,2.7,3.3,4.2
			c0,1.4-2,2.8-3.1,4.2C2481,3017.7,2480.4,3017.7,2479.8,3017.6z"/>
		<path class="st1" d="M2729.5,3442.3c-2.8,1.9-4.2,3.7-5.8,3.9c-2.5,0.3-4.5-1.7-3.8-4.2c0.4-1.5,2.5-3.4,4-3.6
			C2725.3,3438.4,2726.8,3440.4,2729.5,3442.3z"/>
		<path class="st1" d="M2550.4,2984.4c1.9,2.5,4.1,4.2,3.9,5.4c-0.3,1.6-2.5,2.8-3.9,4.2c-1.3-1.3-3.5-2.6-3.7-4
			C2546.6,2988.6,2548.6,2987,2550.4,2984.4z"/>
		<path class="st1" d="M2521.6,3001.8c-2.8,1.9-4.2,3.6-5.8,3.8c-2.5,0.3-4.1-1.5-4-4.1c0.1-2.6,1.8-4.3,4.3-3.7
			C2517.7,2998.2,2519,2999.8,2521.6,3001.8z"/>
		<path class="st1" d="M2446.4,3437c1.1,1.5,3,3,3,4.4c-0.1,1.5-1.9,3.7-3.3,4.1c-2.5,0.7-4.5-1.1-4.1-3.7c0.2-1.7,1.8-3.2,2.7-4.7
			C2445.2,3437,2445.8,3437,2446.4,3437z"/>
		<path class="st1" d="M2716.6,3454.7c-1.5,1.1-3.1,3.1-4.5,2.9c-1.4-0.2-3.6-2.4-3.6-3.8c0-1.3,2.2-3.5,3.7-3.7
			c1.4-0.2,3,1.8,4.5,2.8C2716.6,3453.5,2716.6,3454.1,2716.6,3454.7z"/>
		<path class="st1" d="M2665.9,3471.4c1.8,2.8,3.7,4.5,3.5,5.8c-0.2,1.4-2.5,3.3-4,3.4c-1.2,0.1-3.4-2.3-3.4-3.6
			C2662,3475.5,2664,3474,2665.9,3471.4z"/>
		<path class="st1" d="M2492.5,2996c1.8,2.5,3.8,4.1,3.6,5.3c-0.3,1.5-2.2,3.4-3.6,3.7c-1,0.2-3.5-2.1-3.5-3.3
			C2489,3000.2,2490.8,2998.7,2492.5,2996z"/>
		<path class="st1" d="M2531.8,2991c-1.6,0.9-3.2,2.6-4.7,2.5c-1.2-0.1-3.3-2.3-3.2-3.6c0.1-1.3,2.1-3.5,3.4-3.5
			c1.5,0,3,1.8,4.5,2.9C2531.8,2989.8,2531.8,2990.4,2531.8,2991z"/>
		<path class="st1" d="M2705.8,3465.4c-2.3,1.7-3.8,3.7-5,3.5c-1.5-0.3-2.8-2.2-4.2-3.5c1.4-1.3,2.6-3.3,4.2-3.6
			C2701.9,3461.6,2703.4,3463.7,2705.8,3465.4z"/>
		<path class="st1" d="M2816.5,3354.9c-1.9-2.4-3.8-3.9-3.7-5.1c0.1-1.4,2.2-2.6,3.4-3.9c1.3,1.2,3.3,2.3,3.6,3.6
			C2820,3350.7,2818.1,3352.3,2816.5,3354.9z"/>
		<path class="st1" d="M2653.9,3493.9c-1.6-2.6-3.2-4.1-3.1-5.5c0.1-1.2,2.3-3.3,3.2-3.2c1.4,0.3,3.4,2.1,3.6,3.4
			C2657.7,3489.9,2655.8,3491.4,2653.9,3493.9z"/>
		<path class="st1" d="M2411.2,3435.5c-1.8-2.6-3.7-4-3.6-5.3c0.1-1.3,2.1-3.1,3.5-3.4c0.8-0.2,3.1,2,3.1,3.2
			C2414.4,3431.3,2412.8,3432.8,2411.2,3435.5z"/>
		<path class="st1" d="M2771,3415.1c0.8,1.4,2.5,3.1,2.3,4.3c-0.3,1.3-2.3,2.9-3.7,3.1c-0.8,0.1-2.9-2.2-2.9-3.4
			c0-1.4,1.7-2.7,2.7-4C2769.9,3415,2770.5,3415.1,2771,3415.1z"/>
		<path class="st1" d="M2567.3,2979.2c-2.6,1.7-4.2,3.5-5.4,3.2c-1.3-0.2-2.9-2.3-3-3.7c-0.1-1,2.1-3,3.2-3
			C2563.5,2975.7,2564.8,2977.4,2567.3,2979.2z"/>
		<path class="st1" d="M2763.7,3430.5c-2.4,1.8-3.9,3.6-5,3.4c-1.4-0.2-2.6-2.1-3.8-3.2c1.1-1.2,2.1-3.2,3.3-3.3
			C2759.5,3427.3,2761,3428.9,2763.7,3430.5z"/>
		<path class="st1" d="M2399.5,3413.1c1.6,2.7,3.4,4.2,3.2,5.5c-0.2,1.4-2.3,2.4-3.5,3.6c-1.1-1.2-3-2.4-3.1-3.6
			C2396.1,3417.2,2397.7,3415.8,2399.5,3413.1z"/>
		<path class="st1" d="M2509.5,2989.7c-2.4,1.9-3.8,3.8-4.9,3.6c-1.4-0.2-2.7-2-4-3.1c1.1-1.2,2-3.2,3.2-3.4
			C2505.2,2986.7,2506.8,2988.2,2509.5,2989.7z"/>
		<path class="st1" d="M2689.1,3482.2c-1.7-2.4-3.5-3.9-3.4-5c0.2-1.4,2.1-2.6,3.2-3.8c1.1,1.1,3.1,2.2,3.2,3.4
			C2692.2,3478.2,2690.6,3479.7,2689.1,3482.2z"/>
		<path class="st1" d="M2798.2,3395.8c-2.4,1.8-3.8,3.5-5.1,3.5c-1.1,0-3.4-2.2-3.2-3.1c0.3-1.4,1.9-3.2,3.3-3.6
			C2794.3,3392.3,2795.8,3394.1,2798.2,3395.8z"/>
		<path class="st1" d="M2752,3442.6c-2.5,1.5-4.1,3.1-5.4,2.9c-1.2-0.1-2.2-2.1-3.3-3.3c1.3-1.1,2.5-3,3.9-3.2
			C2748.2,3438.9,2749.6,3440.8,2752,3442.6z"/>
		<path class="st1" d="M2422.6,3446.7c-1.7-2.3-3.6-3.8-3.3-4.8c0.3-1.4,2-3.1,3.4-3.4c0.9-0.2,3.2,1.9,3.2,3.1
			C2425.9,3442.9,2424.2,3444.3,2422.6,3446.7z"/>
		<path class="st1" d="M2434.2,3448.4c1.6,2.3,3.5,3.8,3.2,4.8c-0.4,1.4-2.2,3-3.6,3.3c-0.8,0.2-2.9-2.1-3-3.3
			C2430.8,3451.9,2432.5,3450.6,2434.2,3448.4z"/>
		<path class="st1" d="M2469.4,2996.7c1.7,2.4,3.4,3.8,3.3,4.9c-0.2,1.3-2.1,2.3-3.2,3.5c-1.1-1.1-3-2.2-3.2-3.5
			C2466.2,3000.5,2467.8,2999,2469.4,2996.7z"/>
		<path class="st1" d="M2740.1,3453.5c-2.1,1.8-3.5,3.7-4.5,3.6c-1.4-0.2-2.6-2.1-3.9-3.2c1.1-1.1,2.2-3,3.5-3.2
			C2736.3,3450.5,2737.8,3452.1,2740.1,3453.5z"/>
		<path class="st1" d="M2543.9,2978.2c-2.3,1.8-3.7,3.5-4.8,3.4c-1.3-0.1-2.4-1.9-3.6-3c1.1-1.2,2-3.1,3.3-3.3
			C2539.9,2975.1,2541.4,2976.7,2543.9,2978.2z"/>
		<path class="st1" d="M2619.3,3495.3c1.7,2.2,3.5,3.5,3.4,4.7c-0.1,1.2-2,3.2-3.2,3.3c-1.1,0.1-3.2-1.8-3.3-3.1
			C2616.1,3499,2617.8,3497.6,2619.3,3495.3z"/>
		<path class="st1" d="M2682.3,3488.5c-2.4,1.6-3.7,3.1-5,3.1c-1.1,0-3.2-2-3.1-2.7c0.3-1.4,1.8-3.3,3-3.5
			C2678.3,3485.2,2679.8,3486.9,2682.3,3488.5z"/>
		<path class="st1" d="M2445.5,3460.2c1.6,2,3.4,3.3,3.3,4.3c-0.2,1.4-1.9,2.5-3,3.7c-1.2-1.1-3-2.1-3.3-3.5
			C2442.3,3463.7,2444,3462.3,2445.5,3460.2z"/>
		<path class="st1" d="M2723.5,3470.3c-1.4-2.3-2.9-3.7-2.9-5c0-1,2.1-3,3-2.8c1.3,0.3,3.3,1.9,3.3,3.1
			C2726.9,3466.7,2725.1,3468.1,2723.5,3470.3z"/>
		<path class="st1" d="M2497,3488c-2.4,1.6-3.8,3.4-5,3.2c-1.2-0.2-2.8-2.1-3-3.4c-0.2-0.8,1.9-2.8,3-2.8
			C2493.2,3485,2494.6,3486.5,2497,3488z"/>
		<path class="st1" d="M2515.5,2983.2c-1.4-2.4-3-3.8-2.9-5.1c0.1-1.1,2.4-3,3.2-2.7c1.3,0.4,2.8,2.1,3,3.4
			C2518.9,2979.8,2517.2,2981.1,2515.5,2983.2z"/>
		<path class="st1" d="M2647.2,3500.2c-2.1,1.5-3.4,3.2-4.4,3c-1.3-0.3-2.4-1.9-3.6-3c1.2-1.1,2.2-2.8,3.6-3.1
			C2643.7,3496.9,2645.1,3498.6,2647.2,3500.2z"/>
		<path class="st1" d="M2485.8,2990.3c-2.3,1.4-3.7,3-5,2.9c-1,0-2.9-2.3-2.7-3.2c0.3-1.3,2.1-2.8,3.4-3
			C2482.5,2986.9,2483.7,2988.6,2485.8,2990.3z"/>
		<path class="st1" d="M2461.9,3476.5c-2.2,1.5-3.4,3.1-4.5,3c-1.2-0.1-2.2-1.8-3.4-2.9c1.1-1.1,2.1-2.9,3.5-3.2
			C2458.4,3473.2,2459.8,3475,2461.9,3476.5z"/>
		<path class="st1" d="M2578.3,2967.4c-2.1,1.5-3.5,3.2-4.6,3c-1.1-0.1-2.9-1.9-3-3.1c-0.1-1,1.8-2.8,3-2.9
			C2574.9,2964.4,2576.2,2966,2578.3,2967.4z"/>
		<path class="st1" d="M2716.8,3476.9c-2.3,1.5-3.5,3.1-4.6,3c-1.1-0.1-2.1-1.8-3.2-2.8c1-1.1,1.9-2.8,3.1-3
			C2713.1,3474,2714.5,3475.5,2716.8,3476.9z"/>
		<path class="st1" d="M2555,2967c-2.1,1.4-3.3,2.8-4.6,2.8c-1,0-2.8-1.9-2.7-2.7c0.2-1.2,1.7-3,2.8-3.1
			C2551.6,2963.8,2552.9,2965.5,2555,2967z"/>
		<path class="st1" d="M2584.7,3515.5c-1.5-2-2.9-3.2-2.9-4.4c0-1,1.9-2.8,2.7-2.7c1.2,0.2,2.8,1.6,3.1,2.9
			C2587.8,3512.1,2586.2,3513.4,2584.7,3515.5z"/>
		<path class="st1" d="M2665.6,3496c1.5,1.9,3.2,3.2,3,4c-0.3,1.2-1.9,2.2-2.9,3.2c-0.9-1-2.5-1.9-2.6-3
			C2662.9,3499.2,2664.3,3498,2665.6,3496z"/>
		<path class="st1" d="M2446.3,3005.9c-1.3-2-2.7-3.1-2.6-4.1c0.1-1.1,1.6-2.1,2.4-3.1c1.1,1,2.7,1.9,3.1,3.1
			C2449.4,3002.5,2447.8,3003.8,2446.3,3005.9z"/>
		<path class="st1" d="M2781.6,3435c-1.4-2.1-2.8-3.2-2.8-4.2c0.1-1,1.7-2.6,2.6-2.7c1,0,2.6,1.6,2.7,2.6
			C2784.4,3431.7,2783,3432.9,2781.6,3435z"/>
		<path class="st1" d="M2503.7,3495.3c1.3,2,2.7,3.1,2.6,4.2c-0.1,1.1-1.6,2-2.5,3c-1.1-1-2.7-1.9-3-3.1
			C2500.6,3498.5,2502.2,3497.3,2503.7,3495.3z"/>
		<path class="st1" d="M2700.5,3484.4c1.3,2,2.7,3.2,2.6,4.1c-0.1,1.1-1.7,2-2.6,3c-1-1-2.7-1.8-2.8-2.9
			C2697.6,3487.6,2699.1,3486.4,2700.5,3484.4z"/>
		<path class="st1" d="M2468.6,3483.8c1.5,1.8,3.2,3,3,3.9c-0.2,1.2-1.8,2.1-2.8,3.1c-0.9-0.9-2.5-1.8-2.6-2.8
			C2466.2,3487,2467.5,3485.8,2468.6,3483.8z"/>
		<path class="st1" d="M2561.1,3515.5c-1.2-2.1-2.4-3.4-2.2-4.4c0.2-1.1,1.7-1.9,2.6-2.9c1,1.1,2.6,2,2.8,3.3
			C2564.5,3512.4,2562.8,3513.6,2561.1,3515.5z"/>
		<path class="st1" d="M2612,3511.4c-1.9,1.6-3,3.3-3.8,3.1c-1.2-0.2-2.2-1.8-3.3-2.7c1-1,1.8-2.5,2.9-2.7
			C2608.7,3508.9,2610,3510.2,2612,3511.4z"/>
		<path class="st1" d="M2762.6,3454c-2,1.2-3.2,2.5-4.3,2.4c-1-0.1-2.7-1.8-2.5-2.7c0.1-1.1,1.7-2.6,2.7-2.7
			C2759.6,3451,2760.7,3452.5,2762.6,3454z"/>
		<path class="st1" d="M2496.8,2978.5c-2,1.3-3.3,2.9-4.1,2.6c-1.2-0.3-2-1.9-3-3c1-0.9,2-2.4,3.1-2.5
			C2493.8,2975.6,2494.9,2977.1,2496.8,2978.5z"/>
		<path class="st1" d="M2392.1,3430c-2,1.5-3.2,3.1-4.1,2.9c-1.2-0.3-2.1-1.9-3.1-2.9c1-0.9,1.9-2.4,3-2.5
			C2388.9,3427.3,2390.1,3428.7,2392.1,3430z"/>
		<path class="st1" d="M2364.6,3402.7c1.4,2.1,2.9,3.3,2.7,4.3c-0.2,1-1.8,2.3-3,2.6c-0.6,0.1-2.3-1.6-2.3-2.6
			C2362,3405.9,2363.3,3404.8,2364.6,3402.7z"/>
		<path class="st1" d="M2375.9,3414.3c1.6,1.9,3.1,3,3.1,4c-0.1,1.1-1.6,2.1-2.5,3.1c-1-0.9-2.6-1.7-2.8-2.7
			C2373.4,3417.7,2374.7,3416.4,2375.9,3414.3z"/>
		<path class="st1" d="M2746.6,3461.3c1.4,1.9,3,3.1,2.8,4.1c-0.1,1-1.6,2.4-2.8,2.7c-0.6,0.2-2.4-1.5-2.5-2.4
			C2744.2,3464.5,2745.4,3463.4,2746.6,3461.3z"/>
		<path class="st1" d="M2631.1,3507.6c1.4,2,2.7,3.2,2.6,4.2c0,0.9-1.8,2.7-2.4,2.6c-1.2-0.2-2.8-1.5-3-2.6
			C2628.1,3510.9,2629.6,3509.7,2631.1,3507.6z"/>
		<path class="st1" d="M2774.3,3442.5c-2.1,1.2-3.4,2.6-4.4,2.4c-1-0.1-2.6-1.8-2.5-2.7c0.1-1,1.7-2.6,2.7-2.6
			C2771.2,3439.5,2772.3,3441,2774.3,3442.5z"/>
		<path class="st1" d="M2839.6,3353.9c-1.4-2.1-2.9-3.3-2.7-4.2c0.2-1.1,1.7-2.4,2.8-2.7c0.7-0.1,2.5,1.5,2.5,2.5
			C2842.2,3350.5,2840.9,3351.7,2839.6,3353.9z"/>
		<path class="st1" d="M2399.6,3446c-1.5-2-3-3.1-3-4.2c0-1,1.7-2.6,2.7-2.7c0.9-0.1,2.6,1.5,2.7,2.6
			C2402.2,3442.7,2400.8,3443.9,2399.6,3446z"/>
		<path class="st1" d="M2527,2971c-1.2-2.1-2.4-3.3-2.2-4.3c0.2-1,1.9-2.5,2.8-2.4c1,0.1,2.5,1.7,2.6,2.8
			C2530.2,2968.1,2528.6,2969.1,2527,2971z"/>
		<path class="st1" d="M2411.2,3457.5c-1.6-2.1-3.1-3.2-3-4.2c0.1-1,1.7-2.3,2.9-2.6c0.7-0.2,2.4,1.4,2.5,2.3
			C2413.6,3454.1,2412.5,3455.3,2411.2,3457.5z"/>
		<path class="st1" d="M2426.4,3464.8c-1.6,1.2-2.7,2.7-3.5,2.6c-1.2-0.2-2.1-1.6-3.1-2.5c1-0.9,1.9-2.3,3.1-2.6
			C2423.6,3462.1,2424.7,3463.6,2426.4,3464.8z"/>
		<path class="st1" d="M2538.2,3507.1c1.4,1.9,2.8,3,2.9,4.1c0,0.9-1.6,2.7-2.4,2.6c-1.1-0.1-2.8-1.4-3-2.4
			C2535.5,3510.4,2536.9,3509.1,2538.2,3507.1z"/>
		<path class="st1" d="M2805,3411.7c-1.5-2-2.9-3-3-4.1c-0.1-0.9,1.6-2.6,2.4-2.6c1.1,0.1,2.8,1.3,2.9,2.3
			C2807.5,3408.3,2806.2,3409.6,2805,3411.7z"/>
		<path class="st1" d="M2735.3,3473.4c1.2,1.7,2.5,2.8,2.4,3.7c-0.1,1-1.7,2.4-2.5,2.4c-0.9,0-2.4-1.6-2.4-2.5
			C2732.7,3476,2734.1,3475,2735.3,3473.4z"/>
		<path class="st1" d="M2352.6,3391.5c1.5,1.6,3.1,2.6,3,3.4c-0.1,1.1-1.4,2.6-2.5,3c-0.6,0.2-2.6-1.3-2.7-2.2
			C2350.4,3394.6,2351.6,3393.4,2352.6,3391.5z"/>
		<path class="st1" d="M2589,2955.9c-1.6,1.2-2.8,2.6-3.6,2.4c-1.1-0.3-1.9-1.7-2.9-2.7c1-0.8,1.9-2.2,2.9-2.2
			C2586.3,2953.4,2587.4,2954.7,2589,2955.9z"/>
		<path class="st1" d="M2454,2990.1c1.9-1.3,2.9-2.7,4-2.7c0.9,0,2.5,1.7,2.4,2.5c-0.2,1.1-1.5,2.4-2.6,2.7
			C2457,2992.8,2455.8,2991.4,2454,2990.1z"/>
		<path class="st1" d="M2480.7,3503.4c-1.3-1.7-2.7-2.6-2.7-3.6c0-1,1.4-1.9,2.3-2.9c0.9,0.9,2.4,1.6,2.6,2.6
			C2483,3500.4,2481.8,3501.6,2480.7,3503.4z"/>
		<path class="st1" d="M2518.8,3511.1c-1.6,1.2-2.6,2.6-3.5,2.6c-0.9-0.1-2.5-1.6-2.5-2.4c0-0.9,1.4-2.5,2.4-2.6
			C2516.1,3508.6,2517.2,3510,2518.8,3511.1z"/>
		<path class="st1" d="M2774.3,3025.3c-1.7,1.2-2.7,2.6-3.6,2.5c-1-0.1-1.9-1.5-2.8-2.3c0.8-0.9,1.6-2.4,2.6-2.6
			C2771.4,3022.8,2772.5,3024.1,2774.3,3025.3z"/>
		<path class="st1" d="M2507.9,2966.6c-1.6,1.3-2.6,2.7-3.5,2.7c-1,0-1.9-1.4-2.9-2.2c0.8-0.9,1.6-2.4,2.5-2.6
			C2505,2964.3,2506.1,2965.5,2507.9,2966.6z"/>
		<path class="st1" d="M2465.8,2978.2c1.9-1.1,2.9-2.1,3.9-2.1c0.8,0.1,2.3,1.7,2.1,2.2c-0.3,1-1.5,2.3-2.5,2.4
			C2468.5,2980.9,2467.5,2979.5,2465.8,2978.2z"/>
		<path class="st1" d="M2561.9,2959.7c-1.1-1.9-2.3-3.1-2.1-4c0.2-0.9,1.7-2,2.7-2.1c0.6-0.1,2.1,1.6,2,2.4
			C2564.4,2956.9,2563.2,2957.9,2561.9,2959.7z"/>
		<path class="st1" d="M2692.6,3500.2c-1.8,1.2-2.8,2.4-3.8,2.4c-0.8,0-2.4-1.5-2.2-2.2c0.2-1.1,1.3-2.6,2.3-2.7
			C2689.7,3497.6,2690.8,3498.9,2692.6,3500.2z"/>
		<path class="st1" d="M2612.1,2955.8c-1.7,1.2-2.7,2.6-3.6,2.5c-1-0.1-1.8-1.6-2.7-2.4c0.9-0.9,1.7-2.3,2.7-2.4
			C2609.3,2953.4,2610.4,2954.7,2612.1,2955.8z"/>
		<path class="st1" d="M2345.1,3383.6c-1.7,1.3-2.7,2.7-3.6,2.6c-0.9-0.1-2.1-1.5-2.4-2.5c-0.2-0.5,1.4-2.1,2.2-2.2
			C2342.3,3381.4,2343.3,3382.5,2345.1,3383.6z"/>
		<path class="st1" d="M2437.8,3476.3c-1.6,1.2-2.6,2.6-3.6,2.5c-1-0.1-1.8-1.5-2.8-2.3c0.9-0.9,1.7-2.3,2.6-2.4
			C2435,3474,2436.1,3475.2,2437.8,3476.3z"/>
		<path class="st1" d="M2854.4,3338.4c-1.5,1-2.6,2.2-3.3,2c-1-0.3-1.8-1.6-2.6-2.5c1-0.8,1.9-2,3-2.1
			C2852.1,3335.6,2853,3337.1,2854.4,3338.4z"/>
		<path class="st1" d="M2824.2,3384.2c1.8-1.1,2.9-2.1,3.9-2.1c0.8,0,2.4,1.7,2.2,2.1c-0.3,1.1-1.5,2.4-2.4,2.6
			C2827,3386.9,2825.9,3385.5,2824.2,3384.2z"/>
		<path class="st1" d="M2657.8,3511.8c-1.8,1.1-2.9,2.3-3.9,2.3c-0.8,0-2.4-1.7-2.3-2.2c0.3-1.1,1.5-2.5,2.4-2.6
			C2655,3509.2,2656.1,3510.6,2657.8,3511.8z"/>
		<path class="st1" d="M2411.8,3016.8c-1.3-1.6-2.7-2.7-2.6-3.5c0.1-0.9,1.4-2.1,2.5-2.5c0.5-0.2,2.2,1.3,2.2,2.1
			C2413.9,3014,2412.8,3015,2411.8,3016.8z"/>
		<path class="st1" d="M2597.3,3519.1c0.5,1.1,1.4,2.3,1.3,3.3c-0.2,1-1.4,2.1-2.4,2.5c-0.5,0.2-2.1-1.2-2.2-2
			c-0.1-0.8,1-1.8,1.5-2.8C2596.2,3519.8,2596.7,3519.4,2597.3,3519.1z"/>
		<path class="st1" d="M2631.5,2959.3c-1.1-1.6-2.4-2.7-2.2-3.4c0.3-1,1.7-1.7,2.6-2.5c0.7,0.9,1.9,1.7,1.9,2.6
			C2633.8,2956.9,2632.6,2957.8,2631.5,2959.3z"/>
		<path class="st1" d="M2859.1,3303.3c1.6-1.2,2.7-2.5,3.3-2.3c1,0.3,1.7,1.6,2.5,2.5c-0.8,0.7-1.6,1.9-2.5,2
			C2861.6,3305.5,2860.7,3304.4,2859.1,3303.3z"/>
		<path class="st1" d="M2576.6,3523.1c-1.7,0.9-2.7,2-3.6,1.8c-0.9-0.1-1.6-1.4-2.4-2.2c0.9-0.8,1.8-2,2.8-2.2
			C2574.1,3520.4,2575,3521.8,2576.6,3523.1z"/>
		<path class="st1" d="M2758.7,3017.1c-1-1.5-2.2-2.6-2-3.2c0.3-1,1.6-1.8,2.5-2.7c0.8,1,2,1.9,2.2,3
			C2761.5,3014.8,2760,3015.7,2758.7,3017.1z"/>
		<path class="st1" d="M2542.4,2955c-1.6,1.2-2.4,2.5-3.2,2.4c-0.9-0.1-1.7-1.3-2.5-2.1c0.7-0.8,1.4-2.2,2.2-2.3
			C2539.6,2952.9,2540.7,2954,2542.4,2955z"/>
		<path class="st1" d="M2747.3,2998.9c1.1,1.5,2.4,2.4,2.3,3.2c-0.1,0.8-1.4,2.1-2.2,2.1c-0.8,0-2.2-1.2-2.3-2
			C2745.1,3001.4,2746.3,3000.5,2747.3,2998.9z"/>
		<path class="st1" d="M2619.2,3526.9c-1-1.9-2-3-1.8-3.8c0.2-0.8,1.6-1.4,2.4-2.1c0.6,0.8,1.7,1.6,1.7,2.4
			C2621.4,3524.3,2620.4,3525.2,2619.2,3526.9z"/>
		<path class="st1" d="M2306.4,3305.9c-0.9-1.6-2-2.6-1.9-3.4c0.2-0.8,1.6-1.9,2.4-1.9c0.8,0.1,2.1,1.5,2,2.2
			C2309,3303.7,2307.7,3304.5,2306.4,3305.9z"/>
		<path class="st1" d="M2419.9,3001.6c1.5-1.1,2.5-2.2,3.2-2.1c0.8,0.1,2.1,1.4,2.1,2.1c0,0.8-1.2,2.1-2.1,2.2
			C2422.4,3003.9,2421.5,3002.7,2419.9,3001.6z"/>
		<path class="st1" d="M2333.1,3372.3c-1.6,1-2.5,2-3.4,2c-0.7,0-2-1.6-1.8-2.1c0.3-0.9,1.3-1.9,2.3-2.2
			C2330.7,3369.9,2331.6,3371.1,2333.1,3372.3z"/>
		<path class="st1" d="M2550.2,3519.5c0.9,1.8,2,2.8,1.8,3.5c-0.2,0.8-1.5,1.7-2.5,1.8c-0.5,0.1-1.7-1.4-1.7-2.1
			C2547.9,3521.9,2549,3521.1,2550.2,3519.5z"/>
		<path class="st1" d="M2723.9,3492c-1.2-1.6-2.3-2.4-2.4-3.3c-0.1-0.7,1.2-2.2,1.7-2.1c0.9,0.1,2.3,1,2.5,1.8
			C2725.9,3489.1,2724.9,3490.2,2723.9,3492z"/>
		<path class="st1" d="M2783.2,3294.6c0.7,4.4,1.5,8.9,2.4,13.9c-2.3,0.4-5.1,0.8-8.1,1.3
			C2779.6,3304.3,2781.5,3299.3,2783.2,3294.6z"/>
		<path class="st1" d="M2487.9,3194.7c-0.9,30.6-7.6,59.7-23.6,86.1c-3.2,5.2-7.7,9.9-12.4,13.8c-8.1,6.7-18.3,4.5-22.4-5.2
			c-2.7-6.2-4.5-13.3-4.7-20c-1.6-37,10.5-69.8,31.6-99.7c2.1-3,4.9-5.7,7.7-8.2c8.2-7.1,17.4-4.7,21,5.6c1.5,4.4,2.3,9.2,2.8,13.8
			C2488.3,3185.5,2487.9,3190.1,2487.9,3194.7z M2480.4,3183c-25.4,17.2-42.7,81.1-36.2,107.6c1-0.5,2.2-0.7,2.9-1.4
			c4.4-5.1,9.7-9.7,12.9-15.5c14.8-26.7,20.5-55.8,20.9-86.1C2481,3186.1,2480.6,3184.6,2480.4,3183z"/>
		<path class="st1" d="M2571.5,3264c1.6-30.6,11.2-58.2,30-82.5c1.7-2.2,3.8-4.1,6-5.7c6.9-5.1,14.6-3,17.4,5.1
			c1.6,4.7,2.8,9.7,3,14.6c1.1,29.2-4.7,56.9-18.9,82.6c-2.7,4.9-6.4,9.5-10.5,13.4c-8.9,8.6-19.8,5.8-23.9-5.8
			c-1-2.9-1.8-5.9-2.2-8.9C2571.9,3272.5,2571.8,3268.2,2571.5,3264z M2590.5,3288.5c7.1-5.1,11.1-11.2,14.3-17.8
			c9.5-19.1,14.3-39.5,15.7-60.8c0.2-3.2,0-6.4,0-9.6c-0.4-0.1-0.9-0.1-1.3-0.2C2600.3,3226,2589.2,3254.5,2590.5,3288.5z"/>
		<path class="st1" d="M2334.2,3236.8c-1.2-5.9-2.4-11.1-3.5-16.4c-2.1-10.6-4.1-21.3-6.3-31.9c-0.6-3.1,0.1-5.5,2.3-7.8
			c6.7-6.8,13.8-12.9,22.6-16.8c11.4-5.1,19.4-0.6,19.3,12c0,7.2-1.8,14.6-4.4,21.4C2358.4,3213,2347.7,3225.5,2334.2,3236.8z
			 M2359.6,3189.2c-0.4-0.3-0.7-0.7-1.1-1c-4.8,4.2-9.7,8.5-14.5,12.7c-0.5,0.4-0.9,1.3-0.8,1.8c0.6,3.7,1.2,7.4,2.1,12.1
			C2352,3206.4,2356.5,3198.3,2359.6,3189.2z"/>
	</g>
</g>
</svg>
